<?xml version="1.0" encoding="UTF-8"?>
<svg width="172.94mm" height="170.27mm" version="1.1" viewBox="0 0 172.93938 170.26668" xmlns="http://www.w3.org/2000/svg" xmlns:cc="http://creativecommons.org/ns#" xmlns:dc="http://purl.org/dc/elements/1.1/" xmlns:osb="http://www.openswatchbook.org/uri/2009/osb" xmlns:rdf="http://www.w3.org/1999/02/22-rdf-syntax-ns#">
<metadata>
<rdf:RDF>
<cc:Work rdf:about="">
<dc:format>image/svg+xml</dc:format>
<dc:type rdf:resource="http://purl.org/dc/dcmitype/StillImage"/>
<dc:title/>
</cc:Work>
</rdf:RDF>
</metadata>
<g transform="translate(-36.875 -65.002)">
<path d="m98.35 96.393s2.8063-3.6081 5.0781-4.4099c2.2718-0.80181 2.6727 0.4009 4.8108-0.80181 2.1382-1.2027 5.479-2.94 7.4836-3.3409 2.0045-0.4009 3.7418-1.0691 4.9445-1.7373 1.2027-0.66818 7.4836-4.8109 9.4881-5.7463 2.0045-0.93544 5.479-2.0045 5.479-2.0045s1.8709 2.1382 2.1382 2.6727c0.26727 0.53454 1.0691-0.13364 1.0691-0.13364s4.5436-2.4054 6.5481-2.8063c2.0045-0.4009 6.5481-1.6036 7.7508-1.0691 1.2027 0.53454 2.4054 2.8063 2.8063 3.3409 0.4009 0.53454 10.424 15.502 11.225 16.972 0.80181 1.47 8.8199 13.631 10.424 15.502 1.6036 1.8709 0.93544-0.66818 1.8709 0.26727 0.93544 0.93544 0.80181 2.8063 0.4009 3.8754-0.4009 1.0691 1.47 1.47 1.3364 1.8709-0.13364 0.40091-0.13364 1.6036-0.53454 2.0045-0.4009 0.40091 0.4009 1.8709-0.53454 2.5391-0.93544 0.66818-1.3364 0.93545-1.8709 1.0691-0.53453 0.13364-0.66817 1.6036-1.6036 2.0045-0.93545 0.40091-2.4054 0-2.6727-0.80181-0.26727-0.8018-0.26727-2.0045-0.80181-1.47s-0.66817 1.47-1.8709 1.8709c-1.2027 0.4009 0.53453-1.2027 1.0691-2.1382 0.53454-0.93544-3.7418-0.26727-4.2763-0.80181-0.53454-0.53453 3.3409-1.6036 4.009-1.3363 0.66818 0.26727-1.47-1.7372-2.0045-2.4054-0.53453-0.66817 3.3409 1.0691 4.2763 1.6036 0.93544 0.53454 0.53454-0.93544 0.53454-0.93544s0.4009-0.80181-0.80181-0.93545c-1.2027-0.13363-4.9445-1.3364-7.2163-1.47-2.2718-0.13364-3.3409-1.6036-3.0736-0.53454s0.93544 3.6081 0.80181 4.9445c-0.13364 1.3363 0.80181 1.47 0.66817 2.94-0.13363 1.47 0.66818 3.2072-0.53454 1.0691-1.2027-2.1382-4.009-6.949-4.1427-7.8844-0.13363-0.93544-1.2027-1.3364-1.2027-2.1382s2.6727-0.13363 3.6081-0.80181c0.93544-0.66817 3.4745-2.1382 4.2763-2.94s1.2027-2.1382 0-4.009c-1.2027-1.8709-3.4745-4.8109-5.0781-6.0136-1.6036-1.2027-5.8799-4.6772-6.949-5.7463-1.0691-1.0691-2.2718-2.5391-3.4745-5.0781-1.2027-2.5391-2.4054-5.0781-4.6772-5.6127-2.2718-0.53454-6.5481 1.2027-7.7508 2.2718-1.2027 1.0691-4.9445 3.4745-7.0826 4.2763-2.1382 0.80181-3.7418 0.93544-3.2072 1.47 0.53454 0.53454 4.009 2.2718 5.7463 4.009 1.7373 1.7373 5.8799 5.3454 7.3499 7.0827s4.41 4.2763 4.6772 5.3454c0.26727 1.0691 1.2027 2.94 1.7373 4.8108s1.7372 4.6772 2.5391 6.4145 4.6772 5.0781 6.5481 6.2808 6.949 4.8108 8.419 6.2808c1.47 1.47 7.7508 8.419 10.023 15.368s4.5436 14.7 3.7418 19.11c-0.80181 4.41-0.66817 8.6863-1.6036 12.027-0.93544 3.3409-6.6817 14.433-8.9535 16.972-2.2718 2.5391-2.5391 3.3409-3.8754 3.8754-1.3364 0.53453 3.6081-4.5436 4.009-6.1472 0.4009-1.6036 3.4745-7.6172 2.6727-10.023-0.8018-2.4054-6.949-11.225-9.0872-13.497-2.1382-2.2718-9.0872-8.9535-10.424-10.156-1.3364-1.2027-7.4836-5.479-8.5526-7.0826-1.0691-1.6036-3.4745-4.5436-3.4745-4.5436s0 5.7463 0.53454 9.0872 4.6772 21.782 5.8799 23.653 6.2808 9.2208 6.0136 11.893c-0.26727 2.6727 1.47 5.2118 1.7373 5.8799 0.26726 0.66818-7.4836-3.0736-7.4836-3.0736s0.53454 1.47 1.6036 2.2718c1.0691 0.80181-6.4145-3.0736-6.4145-3.0736l-1.2027-0.13363s-0.93545-1.3364-1.6036-1.3364c-0.66818 0 0.26727 2.2718 1.2027 3.0736s-4.5436-4.009-4.5436-4.009l0.80181 1.47s-2.0045-1.47-2.8063-1.7372 0.13363 1.7372 0.80181 2.4054c0.66817 0.66818-3.8754-4.4099-4.6772-8.8199s-3.7418-16.838-3.7418-16.838-6.949-2.0045-8.2854-2.4054c-1.3364-0.4009 0.4009-3.2072 0.4009-3.2072s1.2027-5.6127 1.0691-6.2808c-0.13363-0.66818-15.368 3.4745-19.11 6.6817-3.7418 3.2072 13.631 8.5526 15.368 12.428s0.66817 5.479 1.3364 6.8154c0.66817 1.3364 6.1472 9.0872 8.1517 11.493s4.2763 6.1472 5.8799 6.949c1.6036 0.80181 3.3409 1.3363 5.0781 1.2027 1.7372-0.13364 2.8063-1.0691 3.8754-0.4009 1.0691 0.66817 1.7372 2.0045 1.6036 2.94-0.13363 0.93544-1.2027 5.2118-0.93544 7.4836s1.2027 4.8108 1.8709 5.6127c0.66817 0.80181 1.7372 1.0691 2.2718 1.6036 0.53454 0.53453 0.66817 0.93544 0.26727 2.1382-0.40091 1.2027-1.7373 2.4054-2.8063 2.6727-1.0691 0.26728-2.5391-0.4009-3.4745 0.26728-0.93544 0.66817-2.94 2.1382-4.6772 2.1382-1.7373 0-3.8754-0.26727-5.2118-1.0691-1.3364-0.8018-1.7372-0.66817-2.2718-1.6036-0.53454-0.93545-0.66817-0.93545 0.4009-1.0691 1.0691-0.13364 3.3409 0.26727 4.1427 0s2.1382-0.13364 2.1382-0.80181-2.1382-9.0872-4.2763-10.691c-2.1382-1.6036-2.6727-3.4745-3.3409-4.6772-0.66818-1.2027-7.6172-9.3544-9.6217-10.557-2.0045-1.2027-6.6817-6.949-8.1517-7.8844-1.47-0.93545-16.437-15.101-18.843-18.709-2.4054-3.6081-4.4099-6.949-4.1427-7.7508 0.26727-0.80181 4.4099-3.8754 5.479-4.6772 1.0691-0.8018 5.2118-4.9445 5.6127-5.0781 0.4009-0.13364 3.8754-3.7418 3.8754-3.7418s0.53455-2.0045 1.0691-2.2718c0.53453-0.26727 7.0826-0.13363 8.0181-0.93544 0.93545-0.80181 4.41-3.2072 5.2118-3.2072 0.8018 0 2.1382-0.53454 2.1382-0.53454s-0.26727-0.53454 0.66818-1.0691c0.93544-0.53453 3.3409-2.0045 4.1427-2.1382 0.80181-0.13364 4.6772-2.1382 5.2118-2.6727s-0.4009-0.93544 0.80181-1.3364c1.2027-0.4009 3.4745-1.47 3.8754-2.4054 0.4009-0.93544 0-2.0045 0.13363-1.7372 0.13364 0.26727 1.47-3.2072 1.6036-4.41 0.13363-1.2027 0.13363-1.8709 0.93544-2.0045s0.93545-2.5391 0.13364-2.94c-0.80181-0.4009-0.13364-2.6727 0.4009-3.6081 0.53454-0.93545-0.4009-4.2763-1.7372-5.6127-1.3364-1.3364-4.8108-4.8109-5.8799-5.0781-1.0691-0.26727-2.94 0.8018-4.41 0.53453s-6.5481-1.0691-7.0826-1.47c-0.53454-0.4009 2.2718 2.5391 5.479 3.3409 3.2072 0.80181-2.5391 0-2.5391 0l1.2027 1.0691s-5.6127-2.8063-7.7508-3.6081c-2.1382-0.80181-3.7418-1.47-3.7418-1.47s0.93544 2.2718 2.1382 2.94c1.2027 0.66818 4.2763 0.53454 6.0136 1.47 1.7372 0.93545 4.009 2.1382 4.5436 3.4745s0.80181 2.0045 1.47 2.94c0.66818 0.93545 2.4054 2.0045 2.8063 3.7418 0.40091 1.7372 0.80181 4.2763-0.66817 6.1472-1.47 1.8709-1.2027 4.009-0.53454 5.6127 0.66817 1.6036 1.7372 3.7418 2.4054 4.1427 0.66817 0.40091-3.0736-1.47-3.8754-3.0736-0.80181-1.6036-2.6727-4.8108-2.6727-5.8799 0-1.0691-0.53454 4.1427 0.80181 5.6127 1.3364 1.47-1.8709-0.53454-1.8709-0.53454s-1.3363-2.8063 0-5.2118c1.3364-2.4054 0.40091-5.0781 0.13364-6.0136-0.26727-0.93545-0.53454-2.94-1.47-3.7418-0.93545-0.80181-2.2718-1.7372-1.8709-1.0691 0.4009 0.66818 2.5391 2.4054 1.2027 7.3499-1.3364 4.9445-0.53454 0.8018-0.53454-1.47s-0.66817-4.6772-1.6036-5.3454c-0.93545-0.66817 0 2.4054-1.2027 1.8709-1.2027-0.53454-1.7372-0.13363-1.7372-0.13363l-0.66817 1.0023s1.1359 1.7372 1.8041 2.4054c0.66817 0.66817-1.7372 0-2.4722-0.80181-0.735-0.8018-2.0714-2.4722-2.0714-2.4722l-1.1359-0.73499-0.46772 0.20045 0.53454 0.26727-0.53454 0.46772 0.73499 0.20045-0.26727 0.53454 0.86863 0.20046-1.1359 0.73499 1.4032 0.33408-1.6704 0.93545-0.26727 1.6036s-1.2695 1.0023-1.8709 1.4032c-0.60135 0.4009-3.2072 0.46772-3.2072-0.0668 0-0.53454-0.20045-2.6059-0.4009-3.1404-0.20045-0.53453-0.735-0.8018-0.735-0.8018l-0.46772-1.5368-1.7373 0.20045 1.1359-1.0691-0.60136-0.33409-0.20045-0.53454h-0.66817l-0.20045-0.66817-1.1359-0.0668-0.80181 0.86863 0.46772-1.2695-2.1382 0.93544s0.53454-0.73499 0.4009-1.0023c-0.13364-0.26727-1.47 0.73499-1.6036 0.26727-0.13363-0.46772-0.13363-0.13363-0.13363-0.13363s2.5391-1.0691 1.6704-1.0691-2.205-0.20045-3.0068 0.20045c-0.80181 0.40091 0-1.2695 0-1.2695s-0.46772-0.53454-1.1359-0.20045c-0.66817 0.33409-1.0023 1.7372-1.1359 0.93544-0.13364-0.80181 0.33409-2.0045-0.60136-2.2718-0.93544-0.26727-1.9377 0.0668-2.6059 0.13363-0.66818 0.0668 2.4054-1.0023 2.0713-1.2027s-2.3386-0.93544-1.6704-1.0691c0.66818-0.13364 1.5368-0.60136 2.0045-0.60136 0.46772 0-1.5368-1.2695-1.4032-1.6704 0.13363-0.4009 1.2027-0.13363 1.8041 0.0668 0.60136 0.20045 1.3363-0.20045 1.0023-0.66817-0.33409-0.46772-0.46772-0.73499-1.8041-1.6036-1.3363-0.86862-3.6081-2.4722-4.009-3.274-0.4009-0.80181 4.1427 1.3364 5.7463 1.1359 1.6036-0.20045-0.53454 0.13364-1.0023-0.86862-0.46772-1.0023-1.4032-1.6704-0.86863-1.47 0.53454 0.20045 2.4054 1.4032 2.3386 0.93544-0.06682-0.46772-0.20045-0.80181 0.33409-0.80181 0.53454 0 2.0713 0.53454 1.3363-0.20045-0.73499-0.73499-1.3363-1.0691 0-1.0023 1.3363 0.0668 2.4722 0.13364 2.205-0.26727-0.26727-0.4009 4.6104-5.2118 4.6104-5.2118z"/>
<path d="m126.3 106.35s-16.97-2.3363-27.951-9.9561c-10.981-7.6198-6.5394-4.3125-6.5394-4.3125s-3.0238-5.2917-3.9688-5.2917-2.1734 0.47247-2.3624 0c-0.18899-0.47247-0.18899-1.2284-1.2284-1.2284s-1.6064 1.3229-2.5513 2.1734c-0.94494 0.85045-3.4963 3.1183-5.0082 3.7798-1.5119 0.66146-1.8899 0.85044-2.0789 2.0789-0.18899 1.2284 1.1339 7.654 2.3624 9.0714 1.2284 1.4174 6.3311 6.4256 6.8981 6.8036 0.56696 0.37798 2.0789 1.5119 2.5513 1.9844 0.47247 0.47247 1.9844 0.18899 1.9844 0.18899l4.3467-8.221s-2.1734-2.0789-2.8348-3.0238c-0.66146-0.94494-1.0394-1.5119-1.0394-1.5119s5.2917 2.8348 6.6146 3.4963c1.3229 0.66146 9.4494 3.6853 17.009 4.3467 7.5595 0.66146 10.111 0.47247 11.528 0.28348s2.2679-0.66146 2.2679-0.66146z"/>
<path d="m134.33 91.23s1.2284 1.9844 3.0238 2.7403c1.7954 0.75595 4.3467 2.4568 5.1027 3.6853 0.75595 1.2284 4.5357 6.1421 5.0082 8.599 0.47247 2.4568 0 3.7798-0.28348 4.7247s1.7009 5.4806 1.7009 5.4806 1.4174 0.0945 1.8899-0.18898c0.47247-0.28349 0.85045-1.3229 0.94494-0.94494 0.0945 0.37797 0.37798 2.5513 0.85045 2.7403s1.9844 0.37798 2.2679 0c0.28348-0.37797-0.47247-1.1339 0.0945-1.0394 0.56697 0.0945 2.0789 0.0945 2.2679-0.37798 0.18899-0.47247-0.37798-1.2284 0.28348-1.2284s2.0789-0.28348 2.0789-0.94494 0-0.47247 0.37798-0.66146c0.37797-0.18899 0.56696-0.56696 0.47247-1.2284-0.0945-0.66146-2.8348-5.1972-5.3862-6.6146-2.5513-1.4174-3.2128-5.3862-4.1577-6.7091-0.94494-1.3229-4.1577-6.8981-4.6302-7.465-0.47247-0.56696-3.4018-5.3862-4.2522-5.8586-0.85045-0.47247-7.654 5.2917-7.654 5.2917z"/>
<path d="m152.76 161.25s0.28348 12.284-0.0945 13.796c-0.37797 1.5119 0.0945 0.47247 0.0945 0.47247s9.8274 4.9137 11.245 5.2917 2.7403 0 3.4018-0.0945 2.3624-0.37797 3.2128 0.28349c0.85045 0.66146 5.0082 5.3862 5.0082 7.3705 0 1.9844 0.28348 3.6853 0.75595 4.4412 0.47247 0.75596 0.94494 1.9844 0.0945 4.0632s-1.0394 3.0238-1.2284 3.5908c-0.18899 0.56697-0.56696 0.75595-2.0789 0.85045-1.5119 0.0945-3.4018 0.56696-4.0632 0.47247-0.66146-0.0945-2.5513 0.56696-3.1183 0.18899-0.56696-0.37798-1.0394-1.7009-0.56696-2.0789 0.47247-0.37798 0.75595-1.3229 1.4174-1.4174 0.66146-0.0945 2.7403 0.18899 2.6458-0.37798-0.0945-0.56696-0.47247-3.0238-1.9844-4.8192-1.5119-1.7954-1.7009-2.2678-2.2679-3.2128-0.56696-0.94494-5.3862-3.9688-7.9375-5.0082-2.5513-1.0394-5.9531-3.1183-6.6146-3.3073s-0.94494 2.1734-0.56697 1.6064c0.37798-0.56696-0.85044 1.4174-1.4174 0.66146-0.56696-0.75596-2.9293-1.9844-3.0238-2.7403-0.0945-0.75595-6.7091-22.206-6.7091-22.206l0.47247-11.623z"/>
<a transform="translate(.52917 2.1167)">
<path d="m125.39 154.5-1.2757 13.206-0.0473 4.6066 3.1656 3.1892 1.7481 2.7167s-1.6064 1.4174-2.7403 1.7954c-1.1339 0.37797-5.5752 1.5119-6.6146 1.8899-1.0394 0.37797-2.5513 1.5119-3.0238 1.5119s-20.127-19.277-20.127-19.277l14.647-7.5595 14.269-2.0789"/>
</a>
<path d="m106.65 188.56s-3.5908 2.2679-5.2917 2.6458c-1.7009 0.37798-8.6935 1.0394-9.7329 0.85045-1.0394-0.18899-3.5908 0.37798-4.7247 1.2284-1.1339 0.85045-4.0632 2.5513-5.1027 3.2128s-1.8899 1.2284-1.8899 2.8348 0.47247 5.9531 0.66146 8.032c0.18899 2.0789 1.5119 4.3467 1.4174 5.5752-0.09449 1.2284 0 1.7009 0.0945 2.8348 0.09449 1.1339-1.6064-2.6458-1.6064-2.6458s-2.1734-5.2917-2.9293-6.2366c-0.75595-0.94494-3.8743-4.5357-4.2522-6.0476-0.37798-1.5119-0.66146-6.2366 0.28348-8.788s3.9688-9.9219 4.9137-11.339c0.94494-1.4174 4.3467-6.8981 5.1972-8.1265 0.85045-1.2284 3.8743-4.5357 4.3467-4.7247 0.47247-0.18899 18.615 20.694 18.615 20.694z"/>
</g>
<g transform="translate(-36.875 -65.002)">
<path d="m44.094 146.77s16.501-4.1924 48.91-16.036c17.115-6.2546 28.865-12.294 35.012-16.303 1.8709 6.949 0.23077 0.27727 2.0045 6.949 1.3367 5.0281 2.8063 8.0181 4.1427 9.889-6.6817 1.8709-22.183 6.949-35.28 11.76-13.096 4.8108-28.865 17.373-32.34 20.58-3.4745 3.2072-5.6127 7.4836-6.4145 11.225-0.80181 3.7418 0.80181 6.949 2.1382 9.0872-3.6081-3.2072-7.7508-9.3544-10.958-16.303s-7.2163-20.847-7.2163-20.847z"/>
<path d="m129.22 119.11 29.934-10.424s2.2718-1.0691 7.0826-1.6036c4.8108-0.53453 4.2763-0.4009 8.0181-0.80181 1.2027 0.93544 2.0045 3.0736 2.0045 3.0736-0.80181 0.66818-6.8154 1.6036-9.4881 2.0045-2.6727 0.40091-9.3544 2.0045-12.161 2.94s-13.096 5.0781-16.838 6.2808c-3.7418 1.2027-3.4654 1.1767-7.4836 2.2718z"/>
<path transform="matrix(.26458 0 0 .26458 36.875 65.002)" d="m321.53 1.0078a321.26 321.26 45.119 0 0 -321.53 320.98 321.26 321.26 45.119 0 0 320.99 321.54 321.26 321.26 45.119 0 0 321.53 -320.98 321.26 321.26 45.119 0 0 -320.99 -321.54zm-0.26953 18.898a302.36 302.36 0 0 1 302.36 302.36 302.36 302.36 0 0 1 -302.36 302.36 302.36 302.36 0 0 1 -302.36 -302.36 302.36 302.36 0 0 1 302.36 -302.36z"/>
</g>
</svg>
